<?xml version="1.0" encoding="UTF-8" standalone="no"?><svg xmlns="http://www.w3.org/2000/svg" xmlns:xlink="http://www.w3.org/1999/xlink" contentScriptType="application/ecmascript" contentStyleType="text/css" height="997px" preserveAspectRatio="none" style="width:2020px;height:997px;" version="1.1" viewBox="0 0 2020 997" width="2020px" zoomAndPan="magnify"><defs><filter height="300%" id="f2w5b4l1ckyej" width="300%" x="-1" y="-1"><feGaussianBlur result="blurOut" stdDeviation="2.0"/><feColorMatrix in="blurOut" result="blurOut2" type="matrix" values="0 0 0 0 0 0 0 0 0 0 0 0 0 0 0 0 0 0 .4 0"/><feOffset dx="4.0" dy="4.0" in="blurOut2" result="blurOut3"/><feBlend in="SourceGraphic" in2="blurOut3" mode="normal"/></filter></defs><g><!--cluster mastermind--><polygon fill="#FFFFFF" filter="url(#f2w5b4l1ckyej)" points="1674,138.5,1773,138.5,1780,160.7969,1874,160.7969,1874,275.5,1674,275.5,1674,138.5" style="stroke: #000000; stroke-width: 1.5;"/><line style="stroke: #000000; stroke-width: 1.5;" x1="1674" x2="1780" y1="160.7969" y2="160.7969"/><text fill="#000000" font-family="sans-serif" font-size="14" font-weight="bold" lengthAdjust="spacingAndGlyphs" textLength="93" x="1678" y="153.4951">mastermind</text><!--cluster mastermind.models--><polygon fill="#FFFFFF" filter="url(#f2w5b4l1ckyej)" points="871,24,1032,24,1039,46.2969,1108,46.2969,1108,282,871,282,871,24" style="stroke: #000000; stroke-width: 1.5;"/><line style="stroke: #000000; stroke-width: 1.5;" x1="871" x2="1039" y1="46.2969" y2="46.2969"/><text fill="#000000" font-family="sans-serif" font-size="14" font-weight="bold" lengthAdjust="spacingAndGlyphs" textLength="155" x="875" y="38.9951">mastermind.models</text><!--cluster mastermind.controllers--><polygon fill="#FFFFFF" filter="url(#f2w5b4l1ckyej)" points="1132,151,1322,151,1329,173.2969,1650,173.2969,1650,403,1132,403,1132,151" style="stroke: #000000; stroke-width: 1.5;"/><line style="stroke: #000000; stroke-width: 1.5;" x1="1132" x2="1329" y1="173.2969" y2="173.2969"/><text fill="#000000" font-family="sans-serif" font-size="14" font-weight="bold" lengthAdjust="spacingAndGlyphs" textLength="184" x="1136" y="165.9951">mastermind.controllers</text><!--cluster mastermind.views--><polygon fill="#FFFFFF" filter="url(#f2w5b4l1ckyej)" points="22,462,172,462,179,484.2969,665,484.2969,665,730,22,730,22,462" style="stroke: #000000; stroke-width: 1.5;"/><line style="stroke: #000000; stroke-width: 1.5;" x1="22" x2="179" y1="484.2969" y2="484.2969"/><text fill="#000000" font-family="sans-serif" font-size="14" font-weight="bold" lengthAdjust="spacingAndGlyphs" textLength="144" x="26" y="476.9951">mastermind.views</text><!--cluster mastermind.views.prototype--><polygon fill="#FFFFFF" filter="url(#f2w5b4l1ckyej)" points="1018,427,1251,427,1258,449.2969,1638,449.2969,1638,730,1018,730,1018,427" style="stroke: #000000; stroke-width: 1.5;"/><line style="stroke: #000000; stroke-width: 1.5;" x1="1018" x2="1258" y1="449.2969" y2="449.2969"/><text fill="#000000" font-family="sans-serif" font-size="14" font-weight="bold" lengthAdjust="spacingAndGlyphs" textLength="227" x="1022" y="441.9951">mastermind.views.prototype</text><!--cluster mastermind.views.console--><polygon fill="#FFFFFF" filter="url(#f2w5b4l1ckyej)" points="460,762,677,762,684,784.2969,1408,784.2969,1408,985,460,985,460,762" style="stroke: #000000; stroke-width: 1.5;"/><line style="stroke: #000000; stroke-width: 1.5;" x1="460" x2="684" y1="784.2969" y2="784.2969"/><text fill="#000000" font-family="sans-serif" font-size="14" font-weight="bold" lengthAdjust="spacingAndGlyphs" textLength="211" x="464" y="776.9951">mastermind.views.console</text><!--class Mastermind--><rect fill="#FEFECE" filter="url(#f2w5b4l1ckyej)" height="86.4141" id="Mastermind" style="stroke: #A80036; stroke-width: 1.5;" width="168" x="1690" y="173.5"/><ellipse cx="1733.35" cy="189.5" fill="#ADD1B2" rx="11" ry="11" style="stroke: #A80036; stroke-width: 1.0;"/><path d="M1736.3188,195.1406 Q1735.7406,195.4375 1735.1,195.5859 Q1734.4594,195.7344 1733.7563,195.7344 Q1731.2563,195.7344 1729.9359,194.0859 Q1728.6156,192.4375 1728.6156,189.3125 Q1728.6156,186.1875 1729.9359,184.5313 Q1731.2563,182.875 1733.7563,182.875 Q1734.4594,182.875 1735.1078,183.0313 Q1735.7563,183.1875 1736.3188,183.4844 L1736.3188,186.2031 Q1735.6938,185.625 1735.1,185.3516 Q1734.5063,185.0781 1733.8813,185.0781 Q1732.5375,185.0781 1731.85,186.1484 Q1731.1625,187.2188 1731.1625,189.3125 Q1731.1625,191.4063 1731.85,192.4766 Q1732.5375,193.5469 1733.8813,193.5469 Q1734.5063,193.5469 1735.1,193.2734 Q1735.6938,193 1736.3188,192.4219 L1736.3188,195.1406 Z "/><text fill="#000000" font-family="sans-serif" font-size="12" lengthAdjust="spacingAndGlyphs" textLength="73" x="1753.65" y="193.6543">Mastermind</text><line style="stroke: #A80036; stroke-width: 1.5;" x1="1691" x2="1857" y1="205.5" y2="205.5"/><line style="stroke: #A80036; stroke-width: 1.5;" x1="1691" x2="1857" y1="213.5" y2="213.5"/><polygon fill="#4177AF" points="1701,221.4023,1697,227.4023,1705,227.4023" style="stroke: #1963A0; stroke-width: 1.0;"/><text fill="#000000" font-family="sans-serif" font-size="11" lengthAdjust="spacingAndGlyphs" textLength="128" x="1710" y="227.7104">Mastermind(ViewType)</text><polygon fill="#4177AF" points="1701,234.207,1697,240.207,1705,240.207" style="stroke: #1963A0; stroke-width: 1.0;"/><text fill="#000000" font-family="sans-serif" font-size="11" lengthAdjust="spacingAndGlyphs" textLength="142" x="1710" y="240.5151">Controller getController()</text><polygon fill="#4177AF" points="1701,247.0117,1697,253.0117,1705,253.0117" style="stroke: #1963A0; stroke-width: 1.0;"/><text fill="#000000" font-family="sans-serif" font-size="11" lengthAdjust="spacingAndGlyphs" textLength="58" x="1710" y="253.3198">void play()</text><!--class Session--><rect fill="#FEFECE" filter="url(#f2w5b4l1ckyej)" height="48" id="Session" style="stroke: #A80036; stroke-width: 1.5;" width="81" x="1010.5" y="59"/><ellipse cx="1025.5" cy="75" fill="#ADD1B2" rx="11" ry="11" style="stroke: #A80036; stroke-width: 1.0;"/><path d="M1028.4688,80.6406 Q1027.8906,80.9375 1027.25,81.0859 Q1026.6094,81.2344 1025.9063,81.2344 Q1023.4063,81.2344 1022.0859,79.5859 Q1020.7656,77.9375 1020.7656,74.8125 Q1020.7656,71.6875 1022.0859,70.0313 Q1023.4063,68.375 1025.9063,68.375 Q1026.6094,68.375 1027.2578,68.5313 Q1027.9063,68.6875 1028.4688,68.9844 L1028.4688,71.7031 Q1027.8438,71.125 1027.25,70.8516 Q1026.6563,70.5781 1026.0313,70.5781 Q1024.6875,70.5781 1024,71.6484 Q1023.3125,72.7188 1023.3125,74.8125 Q1023.3125,76.9063 1024,77.9766 Q1024.6875,79.0469 1026.0313,79.0469 Q1026.6563,79.0469 1027.25,78.7734 Q1027.8438,78.5 1028.4688,77.9219 L1028.4688,80.6406 Z "/><text fill="#000000" font-family="sans-serif" font-size="12" lengthAdjust="spacingAndGlyphs" textLength="49" x="1039.5" y="79.1543">Session</text><line style="stroke: #A80036; stroke-width: 1.5;" x1="1011.5" x2="1090.5" y1="91" y2="91"/><line style="stroke: #A80036; stroke-width: 1.5;" x1="1011.5" x2="1090.5" y1="99" y2="99"/><!--class StateValue--><rect fill="#FEFECE" filter="url(#f2w5b4l1ckyej)" height="99.2188" id="StateValue" style="stroke: #A80036; stroke-width: 1.5;" width="101" x="887.5" y="167"/><ellipse cx="902.5" cy="183" fill="#EB937F" rx="11" ry="11" style="stroke: #A80036; stroke-width: 1.0;"/><path d="M906.6094,189 L898.8906,189 L898.8906,176.6094 L906.6094,176.6094 L906.6094,178.7656 L901.3438,178.7656 L901.3438,181.4375 L906.1094,181.4375 L906.1094,183.5938 L901.3438,183.5938 L901.3438,186.8438 L906.6094,186.8438 L906.6094,189 Z "/><text fill="#000000" font-family="sans-serif" font-size="12" lengthAdjust="spacingAndGlyphs" textLength="69" x="916.5" y="187.1543">StateValue</text><line style="stroke: #A80036; stroke-width: 1.5;" x1="888.5" x2="987.5" y1="199" y2="199"/><text fill="#000000" font-family="sans-serif" font-size="11" lengthAdjust="spacingAndGlyphs" textLength="37" x="893.5" y="213.2104">INITIAL</text><text fill="#000000" font-family="sans-serif" font-size="11" lengthAdjust="spacingAndGlyphs" textLength="49" x="893.5" y="226.0151">IN_GAME</text><text fill="#000000" font-family="sans-serif" font-size="11" lengthAdjust="spacingAndGlyphs" textLength="30" x="893.5" y="238.8198">FINAL</text><text fill="#000000" font-family="sans-serif" font-size="11" lengthAdjust="spacingAndGlyphs" textLength="24" x="893.5" y="251.6245">EXIT</text><line style="stroke: #A80036; stroke-width: 1.5;" x1="888.5" x2="987.5" y1="258.2188" y2="258.2188"/><!--class Game--><rect fill="#FEFECE" filter="url(#f2w5b4l1ckyej)" height="48" id="Game" style="stroke: #A80036; stroke-width: 1.5;" width="68" x="1024" y="192.5"/><ellipse cx="1039" cy="208.5" fill="#ADD1B2" rx="11" ry="11" style="stroke: #A80036; stroke-width: 1.0;"/><path d="M1041.9688,214.1406 Q1041.3906,214.4375 1040.75,214.5859 Q1040.1094,214.7344 1039.4063,214.7344 Q1036.9063,214.7344 1035.5859,213.0859 Q1034.2656,211.4375 1034.2656,208.3125 Q1034.2656,205.1875 1035.5859,203.5313 Q1036.9063,201.875 1039.4063,201.875 Q1040.1094,201.875 1040.7578,202.0313 Q1041.4063,202.1875 1041.9688,202.4844 L1041.9688,205.2031 Q1041.3438,204.625 1040.75,204.3516 Q1040.1563,204.0781 1039.5313,204.0781 Q1038.1875,204.0781 1037.5,205.1484 Q1036.8125,206.2188 1036.8125,208.3125 Q1036.8125,210.4063 1037.5,211.4766 Q1038.1875,212.5469 1039.5313,212.5469 Q1040.1563,212.5469 1040.75,212.2734 Q1041.3438,212 1041.9688,211.4219 L1041.9688,214.1406 Z "/><text fill="#000000" font-family="sans-serif" font-size="12" lengthAdjust="spacingAndGlyphs" textLength="36" x="1053" y="212.6543">Game</text><line style="stroke: #A80036; stroke-width: 1.5;" x1="1025" x2="1091" y1="224.5" y2="224.5"/><line style="stroke: #A80036; stroke-width: 1.5;" x1="1025" x2="1091" y1="232.5" y2="232.5"/><!--class Controller--><rect fill="#FEFECE" filter="url(#f2w5b4l1ckyej)" height="60.8047" id="Controller" style="stroke: #A80036; stroke-width: 1.5;" width="100" x="1254" y="186"/><ellipse cx="1272.15" cy="202" fill="#A9DCDF" rx="11" ry="11" style="stroke: #A80036; stroke-width: 1.0;"/><path d="M1272.2594,197.3438 L1271.1031,202.4219 L1273.4313,202.4219 L1272.2594,197.3438 Z M1270.775,195.1094 L1273.7594,195.1094 L1277.1188,207.5 L1274.6656,207.5 L1273.9,204.4375 L1270.6188,204.4375 L1269.8688,207.5 L1267.4313,207.5 L1270.775,195.1094 Z "/><text fill="#000000" font-family="sans-serif" font-size="12" font-style="italic" lengthAdjust="spacingAndGlyphs" textLength="61" x="1286.85" y="206.1543">Controller</text><line style="stroke: #A80036; stroke-width: 1.5;" x1="1255" x2="1353" y1="218" y2="218"/><line style="stroke: #A80036; stroke-width: 1.5;" x1="1255" x2="1353" y1="226" y2="226"/><ellipse cx="1265" cy="237.9023" fill="#84BE84" rx="3" ry="3" style="stroke: #038048; stroke-width: 1.0;"/><text fill="#000000" font-family="sans-serif" font-size="11" font-style="italic" lengthAdjust="spacingAndGlyphs" textLength="74" x="1274" y="240.2104">void control()</text><!--class StartController--><rect fill="#FEFECE" filter="url(#f2w5b4l1ckyej)" height="60.8047" id="StartController" style="stroke: #A80036; stroke-width: 1.5;" width="124" x="1327" y="326"/><ellipse cx="1342" cy="342" fill="#ADD1B2" rx="11" ry="11" style="stroke: #A80036; stroke-width: 1.0;"/><path d="M1344.9688,347.6406 Q1344.3906,347.9375 1343.75,348.0859 Q1343.1094,348.2344 1342.4063,348.2344 Q1339.9063,348.2344 1338.5859,346.5859 Q1337.2656,344.9375 1337.2656,341.8125 Q1337.2656,338.6875 1338.5859,337.0313 Q1339.9063,335.375 1342.4063,335.375 Q1343.1094,335.375 1343.7578,335.5313 Q1344.4063,335.6875 1344.9688,335.9844 L1344.9688,338.7031 Q1344.3438,338.125 1343.75,337.8516 Q1343.1563,337.5781 1342.5313,337.5781 Q1341.1875,337.5781 1340.5,338.6484 Q1339.8125,339.7188 1339.8125,341.8125 Q1339.8125,343.9063 1340.5,344.9766 Q1341.1875,346.0469 1342.5313,346.0469 Q1343.1563,346.0469 1343.75,345.7734 Q1344.3438,345.5 1344.9688,344.9219 L1344.9688,347.6406 Z "/><text fill="#000000" font-family="sans-serif" font-size="12" lengthAdjust="spacingAndGlyphs" textLength="92" x="1356" y="346.1543">StartController</text><line style="stroke: #A80036; stroke-width: 1.5;" x1="1328" x2="1450" y1="358" y2="358"/><line style="stroke: #A80036; stroke-width: 1.5;" x1="1328" x2="1450" y1="366" y2="366"/><ellipse cx="1338" cy="377.9023" fill="#84BE84" rx="3" ry="3" style="stroke: #038048; stroke-width: 1.0;"/><text fill="#000000" font-family="sans-serif" font-size="11" lengthAdjust="spacingAndGlyphs" textLength="74" x="1347" y="380.2104">void control()</text><!--class ProposalController--><rect fill="#FEFECE" filter="url(#f2w5b4l1ckyej)" height="60.8047" id="ProposalController" style="stroke: #A80036; stroke-width: 1.5;" width="148" x="1486" y="326"/><ellipse cx="1501" cy="342" fill="#ADD1B2" rx="11" ry="11" style="stroke: #A80036; stroke-width: 1.0;"/><path d="M1503.9688,347.6406 Q1503.3906,347.9375 1502.75,348.0859 Q1502.1094,348.2344 1501.4063,348.2344 Q1498.9063,348.2344 1497.5859,346.5859 Q1496.2656,344.9375 1496.2656,341.8125 Q1496.2656,338.6875 1497.5859,337.0313 Q1498.9063,335.375 1501.4063,335.375 Q1502.1094,335.375 1502.7578,335.5313 Q1503.4063,335.6875 1503.9688,335.9844 L1503.9688,338.7031 Q1503.3438,338.125 1502.75,337.8516 Q1502.1563,337.5781 1501.5313,337.5781 Q1500.1875,337.5781 1499.5,338.6484 Q1498.8125,339.7188 1498.8125,341.8125 Q1498.8125,343.9063 1499.5,344.9766 Q1500.1875,346.0469 1501.5313,346.0469 Q1502.1563,346.0469 1502.75,345.7734 Q1503.3438,345.5 1503.9688,344.9219 L1503.9688,347.6406 Z "/><text fill="#000000" font-family="sans-serif" font-size="12" lengthAdjust="spacingAndGlyphs" textLength="116" x="1515" y="346.1543">ProposalController</text><line style="stroke: #A80036; stroke-width: 1.5;" x1="1487" x2="1633" y1="358" y2="358"/><line style="stroke: #A80036; stroke-width: 1.5;" x1="1487" x2="1633" y1="366" y2="366"/><ellipse cx="1497" cy="377.9023" fill="#84BE84" rx="3" ry="3" style="stroke: #038048; stroke-width: 1.0;"/><text fill="#000000" font-family="sans-serif" font-size="11" lengthAdjust="spacingAndGlyphs" textLength="74" x="1506" y="380.2104">void control()</text><!--class ResumeController--><rect fill="#FEFECE" filter="url(#f2w5b4l1ckyej)" height="60.8047" id="ResumeController" style="stroke: #A80036; stroke-width: 1.5;" width="143" x="1148.5" y="326"/><ellipse cx="1163.5" cy="342" fill="#ADD1B2" rx="11" ry="11" style="stroke: #A80036; stroke-width: 1.0;"/><path d="M1166.4688,347.6406 Q1165.8906,347.9375 1165.25,348.0859 Q1164.6094,348.2344 1163.9063,348.2344 Q1161.4063,348.2344 1160.0859,346.5859 Q1158.7656,344.9375 1158.7656,341.8125 Q1158.7656,338.6875 1160.0859,337.0313 Q1161.4063,335.375 1163.9063,335.375 Q1164.6094,335.375 1165.2578,335.5313 Q1165.9063,335.6875 1166.4688,335.9844 L1166.4688,338.7031 Q1165.8438,338.125 1165.25,337.8516 Q1164.6563,337.5781 1164.0313,337.5781 Q1162.6875,337.5781 1162,338.6484 Q1161.3125,339.7188 1161.3125,341.8125 Q1161.3125,343.9063 1162,344.9766 Q1162.6875,346.0469 1164.0313,346.0469 Q1164.6563,346.0469 1165.25,345.7734 Q1165.8438,345.5 1166.4688,344.9219 L1166.4688,347.6406 Z "/><text fill="#000000" font-family="sans-serif" font-size="12" lengthAdjust="spacingAndGlyphs" textLength="111" x="1177.5" y="346.1543">ResumeController</text><line style="stroke: #A80036; stroke-width: 1.5;" x1="1149.5" x2="1290.5" y1="358" y2="358"/><line style="stroke: #A80036; stroke-width: 1.5;" x1="1149.5" x2="1290.5" y1="366" y2="366"/><ellipse cx="1159.5" cy="377.9023" fill="#84BE84" rx="3" ry="3" style="stroke: #038048; stroke-width: 1.0;"/><text fill="#000000" font-family="sans-serif" font-size="11" lengthAdjust="spacingAndGlyphs" textLength="74" x="1168.5" y="380.2104">void control()</text><!--class View--><rect fill="#FEFECE" filter="url(#f2w5b4l1ckyej)" height="48" id="View" style="stroke: #A80036; stroke-width: 1.5;" width="60" x="367" y="497"/><ellipse cx="382" cy="513" fill="#B4A7E5" rx="11" ry="11" style="stroke: #A80036; stroke-width: 1.0;"/><path d="M377.9219,508.7656 L377.9219,506.6094 L385.3125,506.6094 L385.3125,508.7656 L382.8438,508.7656 L382.8438,516.8438 L385.3125,516.8438 L385.3125,519 L377.9219,519 L377.9219,516.8438 L380.3906,516.8438 L380.3906,508.7656 L377.9219,508.7656 Z "/><text fill="#000000" font-family="sans-serif" font-size="12" font-style="italic" lengthAdjust="spacingAndGlyphs" textLength="28" x="396" y="517.1543">View</text><line style="stroke: #A80036; stroke-width: 1.5;" x1="368" x2="426" y1="529" y2="529"/><line style="stroke: #A80036; stroke-width: 1.5;" x1="368" x2="426" y1="537" y2="537"/><!--class StartView--><rect fill="#FEFECE" filter="url(#f2w5b4l1ckyej)" height="60.8047" id="StartView" style="stroke: #A80036; stroke-width: 1.5;" width="99" x="38.5" y="646.5"/><ellipse cx="57.1" cy="662.5" fill="#B4A7E5" rx="11" ry="11" style="stroke: #A80036; stroke-width: 1.0;"/><path d="M53.0219,658.2656 L53.0219,656.1094 L60.4125,656.1094 L60.4125,658.2656 L57.9438,658.2656 L57.9438,666.3438 L60.4125,666.3438 L60.4125,668.5 L53.0219,668.5 L53.0219,666.3438 L55.4906,666.3438 L55.4906,658.2656 L53.0219,658.2656 Z "/><text fill="#000000" font-family="sans-serif" font-size="12" font-style="italic" lengthAdjust="spacingAndGlyphs" textLength="59" x="71.9" y="666.6543">StartView</text><line style="stroke: #A80036; stroke-width: 1.5;" x1="39.5" x2="136.5" y1="678.5" y2="678.5"/><line style="stroke: #A80036; stroke-width: 1.5;" x1="39.5" x2="136.5" y1="686.5" y2="686.5"/><ellipse cx="49.5" cy="698.4023" fill="#84BE84" rx="3" ry="3" style="stroke: #038048; stroke-width: 1.0;"/><text fill="#000000" font-family="sans-serif" font-size="11" lengthAdjust="spacingAndGlyphs" textLength="73" x="58.5" y="700.7104">void writeln()</text><!--class GameView--><rect fill="#FEFECE" filter="url(#f2w5b4l1ckyej)" height="73.6094" id="GameView" style="stroke: #A80036; stroke-width: 1.5;" width="193" x="172.5" y="640"/><ellipse cx="232.75" cy="656" fill="#B4A7E5" rx="11" ry="11" style="stroke: #A80036; stroke-width: 1.0;"/><path d="M228.6719,651.7656 L228.6719,649.6094 L236.0625,649.6094 L236.0625,651.7656 L233.5938,651.7656 L233.5938,659.8438 L236.0625,659.8438 L236.0625,662 L228.6719,662 L228.6719,659.8438 L231.1406,659.8438 L231.1406,651.7656 L228.6719,651.7656 Z "/><text fill="#000000" font-family="sans-serif" font-size="12" font-style="italic" lengthAdjust="spacingAndGlyphs" textLength="64" x="253.25" y="660.1543">GameView</text><line style="stroke: #A80036; stroke-width: 1.5;" x1="173.5" x2="364.5" y1="672" y2="672"/><line style="stroke: #A80036; stroke-width: 1.5;" x1="173.5" x2="364.5" y1="680" y2="680"/><ellipse cx="183.5" cy="691.9023" fill="#84BE84" rx="3" ry="3" style="stroke: #038048; stroke-width: 1.0;"/><text fill="#000000" font-family="sans-serif" font-size="11" lengthAdjust="spacingAndGlyphs" textLength="167" x="192.5" y="694.2104">void writeGame(Game game)</text><ellipse cx="183.5" cy="704.707" fill="#84BE84" rx="3" ry="3" style="stroke: #038048; stroke-width: 1.0;"/><text fill="#000000" font-family="sans-serif" font-size="11" lengthAdjust="spacingAndGlyphs" textLength="163" x="192.5" y="707.0151">ProposedCombination read()</text><!--class ResumeView--><rect fill="#FEFECE" filter="url(#f2w5b4l1ckyej)" height="73.6094" id="ResumeView" style="stroke: #A80036; stroke-width: 1.5;" width="248" x="401" y="640"/><ellipse cx="481.75" cy="656" fill="#B4A7E5" rx="11" ry="11" style="stroke: #A80036; stroke-width: 1.0;"/><path d="M477.6719,651.7656 L477.6719,649.6094 L485.0625,649.6094 L485.0625,651.7656 L482.5938,651.7656 L482.5938,659.8438 L485.0625,659.8438 L485.0625,662 L477.6719,662 L477.6719,659.8438 L480.1406,659.8438 L480.1406,651.7656 L477.6719,651.7656 Z "/><text fill="#000000" font-family="sans-serif" font-size="12" font-style="italic" lengthAdjust="spacingAndGlyphs" textLength="78" x="502.25" y="660.1543">ResumeView</text><line style="stroke: #A80036; stroke-width: 1.5;" x1="402" x2="648" y1="672" y2="672"/><line style="stroke: #A80036; stroke-width: 1.5;" x1="402" x2="648" y1="680" y2="680"/><ellipse cx="412" cy="691.9023" fill="#84BE84" rx="3" ry="3" style="stroke: #038048; stroke-width: 1.0;"/><text fill="#000000" font-family="sans-serif" font-size="11" lengthAdjust="spacingAndGlyphs" textLength="141" x="421" y="694.2104">boolean readNewGame()</text><ellipse cx="412" cy="704.707" fill="#84BE84" rx="3" ry="3" style="stroke: #038048; stroke-width: 1.0;"/><text fill="#000000" font-family="sans-serif" font-size="11" lengthAdjust="spacingAndGlyphs" textLength="222" x="421" y="707.0151">void writeFinalResult(Boolean isWinner)</text><!--class ViewPrototype--><rect fill="#FEFECE" filter="url(#f2w5b4l1ckyej)" height="117.9609" id="ViewPrototype" style="stroke: #A80036; stroke-width: 1.5;" width="294" x="1328" y="462"/><ellipse cx="1426.25" cy="480.9688" fill="#FF7700" rx="11" ry="11" style="stroke: #A80036; stroke-width: 1.0;"/><path d="M1425.7344,481.5313 Q1423.875,480.8281 1423.2266,480.0547 Q1422.5781,479.2813 1422.5781,477.9688 Q1422.5781,476.2813 1423.6563,475.3125 Q1424.7344,474.3438 1426.6094,474.3438 Q1427.4688,474.3438 1428.3203,474.5391 Q1429.1719,474.7344 1430.0156,475.125 L1430.0156,477.5156 Q1429.2344,476.9531 1428.4141,476.6641 Q1427.5938,476.375 1426.7969,476.375 Q1425.9219,476.375 1425.4453,476.7344 Q1424.9688,477.0938 1424.9688,477.75 Q1424.9688,478.2656 1425.3125,478.6016 Q1425.6563,478.9375 1426.75,479.3438 L1427.8125,479.75 Q1429.2969,480.2969 1430.0078,481.2031 Q1430.7188,482.1094 1430.7188,483.4844 Q1430.7188,485.3594 1429.6094,486.2813 Q1428.5,487.2031 1426.25,487.2031 Q1425.3281,487.2031 1424.4063,486.9844 Q1423.4844,486.7656 1422.625,486.3438 L1422.625,483.8125 Q1423.5938,484.5 1424.5156,484.8438 Q1425.4375,485.1875 1426.3281,485.1875 Q1427.2344,485.1875 1427.7344,484.7734 Q1428.2344,484.3594 1428.2344,483.625 Q1428.2344,483.0625 1427.8984,482.6484 Q1427.5625,482.2344 1426.9375,481.9844 L1425.7344,481.5313 Z "/><text fill="#000000" font-family="sans-serif" font-size="12" font-style="italic" lengthAdjust="spacingAndGlyphs" textLength="73" x="1454.75" y="478.1387">«Singleton»</text><text fill="#000000" font-family="sans-serif" font-size="12" lengthAdjust="spacingAndGlyphs" textLength="89" x="1446.75" y="492.1074">ViewPrototype</text><line style="stroke: #A80036; stroke-width: 1.5;" x1="1329" x2="1621" y1="499.9375" y2="499.9375"/><rect fill="none" height="6" style="stroke: #C82930; stroke-width: 1.0;" width="6" x="1336" y="508.8398"/><text fill="#000000" font-family="sans-serif" font-size="11" lengthAdjust="spacingAndGlyphs" textLength="268" x="1348" y="514.1479">Map&lt;ViewType, ViewTypePrototype&gt; viewsMap</text><rect fill="none" height="6" style="stroke: #C82930; stroke-width: 1.0;" width="6" x="1336" y="521.6445"/><text fill="#000000" font-family="sans-serif" font-size="11" lengthAdjust="spacingAndGlyphs" text-decoration="underline" textLength="163" x="1348" y="526.9526">ViewPrototype viewPrototype</text><line style="stroke: #A80036; stroke-width: 1.5;" x1="1329" x2="1621" y1="533.5469" y2="533.5469"/><ellipse cx="1339" cy="545.4492" fill="#84BE84" rx="3" ry="3" style="stroke: #038048; stroke-width: 1.0;"/><text fill="#000000" font-family="sans-serif" font-size="11" lengthAdjust="spacingAndGlyphs" textLength="158" x="1348" y="547.7573">ViewPrototype getInstance()</text><rect fill="#F24D5C" height="6" style="stroke: #C82930; stroke-width: 1.0;" width="6" x="1336" y="555.2539"/><text fill="#000000" font-family="sans-serif" font-size="11" lengthAdjust="spacingAndGlyphs" textLength="88" x="1348" y="560.562">ViewPrototype()</text><ellipse cx="1339" cy="571.0586" fill="#84BE84" rx="3" ry="3" style="stroke: #038048; stroke-width: 1.0;"/><text fill="#000000" font-family="sans-serif" font-size="11" lengthAdjust="spacingAndGlyphs" textLength="128" x="1348" y="573.3667">View getView(Session)</text><!--class ViewType--><rect fill="#FEFECE" filter="url(#f2w5b4l1ckyej)" height="73.6094" id="ViewType" style="stroke: #A80036; stroke-width: 1.5;" width="89" x="1533.5" y="640"/><ellipse cx="1548.5" cy="656" fill="#EB937F" rx="11" ry="11" style="stroke: #A80036; stroke-width: 1.0;"/><path d="M1552.6094,662 L1544.8906,662 L1544.8906,649.6094 L1552.6094,649.6094 L1552.6094,651.7656 L1547.3438,651.7656 L1547.3438,654.4375 L1552.1094,654.4375 L1552.1094,656.5938 L1547.3438,656.5938 L1547.3438,659.8438 L1552.6094,659.8438 L1552.6094,662 Z "/><text fill="#000000" font-family="sans-serif" font-size="12" lengthAdjust="spacingAndGlyphs" textLength="57" x="1562.5" y="660.1543">ViewType</text><line style="stroke: #A80036; stroke-width: 1.5;" x1="1534.5" x2="1621.5" y1="672" y2="672"/><text fill="#000000" font-family="sans-serif" font-size="11" lengthAdjust="spacingAndGlyphs" textLength="55" x="1539.5" y="686.2104">CONSOLE</text><text fill="#000000" font-family="sans-serif" font-size="11" lengthAdjust="spacingAndGlyphs" textLength="49" x="1539.5" y="699.0151">GRAPHIC</text><line style="stroke: #A80036; stroke-width: 1.5;" x1="1534.5" x2="1621.5" y1="705.6094" y2="705.6094"/><!--class ViewTypePrototype--><rect fill="#FEFECE" filter="url(#f2w5b4l1ckyej)" height="60.8047" id="ViewTypePrototype" style="stroke: #A80036; stroke-width: 1.5;" width="169" x="1123.5" y="490.5"/><ellipse cx="1147.05" cy="506.5" fill="#B4A7E5" rx="11" ry="11" style="stroke: #A80036; stroke-width: 1.0;"/><path d="M1142.9719,502.2656 L1142.9719,500.1094 L1150.3625,500.1094 L1150.3625,502.2656 L1147.8938,502.2656 L1147.8938,510.3438 L1150.3625,510.3438 L1150.3625,512.5 L1142.9719,512.5 L1142.9719,510.3438 L1145.4406,510.3438 L1145.4406,502.2656 L1142.9719,502.2656 Z "/><text fill="#000000" font-family="sans-serif" font-size="12" font-style="italic" lengthAdjust="spacingAndGlyphs" textLength="118" x="1162.95" y="510.6543">ViewTypePrototype</text><line style="stroke: #A80036; stroke-width: 1.5;" x1="1124.5" x2="1291.5" y1="522.5" y2="522.5"/><line style="stroke: #A80036; stroke-width: 1.5;" x1="1124.5" x2="1291.5" y1="530.5" y2="530.5"/><ellipse cx="1134.5" cy="542.4023" fill="#84BE84" rx="3" ry="3" style="stroke: #038048; stroke-width: 1.0;"/><text fill="#000000" font-family="sans-serif" font-size="11" lengthAdjust="spacingAndGlyphs" textLength="143" x="1143.5" y="544.7104">View getView(StateValue)</text><!--class ViewConsolePrototype--><rect fill="#FEFECE" filter="url(#f2w5b4l1ckyej)" height="48" id="ViewConsolePrototype" style="stroke: #A80036; stroke-width: 1.5;" width="171" x="1314.5" y="653"/><ellipse cx="1329.5" cy="669" fill="#ADD1B2" rx="11" ry="11" style="stroke: #A80036; stroke-width: 1.0;"/><path d="M1332.4688,674.6406 Q1331.8906,674.9375 1331.25,675.0859 Q1330.6094,675.2344 1329.9063,675.2344 Q1327.4063,675.2344 1326.0859,673.5859 Q1324.7656,671.9375 1324.7656,668.8125 Q1324.7656,665.6875 1326.0859,664.0313 Q1327.4063,662.375 1329.9063,662.375 Q1330.6094,662.375 1331.2578,662.5313 Q1331.9063,662.6875 1332.4688,662.9844 L1332.4688,665.7031 Q1331.8438,665.125 1331.25,664.8516 Q1330.6563,664.5781 1330.0313,664.5781 Q1328.6875,664.5781 1328,665.6484 Q1327.3125,666.7188 1327.3125,668.8125 Q1327.3125,670.9063 1328,671.9766 Q1328.6875,673.0469 1330.0313,673.0469 Q1330.6563,673.0469 1331.25,672.7734 Q1331.8438,672.5 1332.4688,671.9219 L1332.4688,674.6406 Z "/><text fill="#000000" font-family="sans-serif" font-size="12" lengthAdjust="spacingAndGlyphs" textLength="139" x="1343.5" y="673.1543">ViewConsolePrototype</text><line style="stroke: #A80036; stroke-width: 1.5;" x1="1315.5" x2="1484.5" y1="685" y2="685"/><line style="stroke: #A80036; stroke-width: 1.5;" x1="1315.5" x2="1484.5" y1="693" y2="693"/><ellipse cx="1084" cy="521" fill="#FEFECE" filter="url(#f2w5b4l1ckyej)" rx="5" ry="5" style="stroke: #A80036; stroke-width: 1.5;"/><text fill="#000000" font-family="sans-serif" font-size="12" lengthAdjust="spacingAndGlyphs" textLength="118" x="1025" y="537.1387">ViewTypePrototype</text><!--class ViewGraphicPrototype--><rect fill="#FEFECE" filter="url(#f2w5b4l1ckyej)" height="48" id="ViewGraphicPrototype" style="stroke: #A80036; stroke-width: 1.5;" width="169" x="1067.5" y="653"/><ellipse cx="1082.5" cy="669" fill="#ADD1B2" rx="11" ry="11" style="stroke: #A80036; stroke-width: 1.0;"/><path d="M1085.4688,674.6406 Q1084.8906,674.9375 1084.25,675.0859 Q1083.6094,675.2344 1082.9063,675.2344 Q1080.4063,675.2344 1079.0859,673.5859 Q1077.7656,671.9375 1077.7656,668.8125 Q1077.7656,665.6875 1079.0859,664.0313 Q1080.4063,662.375 1082.9063,662.375 Q1083.6094,662.375 1084.2578,662.5313 Q1084.9063,662.6875 1085.4688,662.9844 L1085.4688,665.7031 Q1084.8438,665.125 1084.25,664.8516 Q1083.6563,664.5781 1083.0313,664.5781 Q1081.6875,664.5781 1081,665.6484 Q1080.3125,666.7188 1080.3125,668.8125 Q1080.3125,670.9063 1081,671.9766 Q1081.6875,673.0469 1083.0313,673.0469 Q1083.6563,673.0469 1084.25,672.7734 Q1084.8438,672.5 1085.4688,671.9219 L1085.4688,674.6406 Z "/><text fill="#000000" font-family="sans-serif" font-size="12" lengthAdjust="spacingAndGlyphs" textLength="137" x="1096.5" y="673.1543">ViewGraphicPrototype</text><line style="stroke: #A80036; stroke-width: 1.5;" x1="1068.5" x2="1235.5" y1="685" y2="685"/><line style="stroke: #A80036; stroke-width: 1.5;" x1="1068.5" x2="1235.5" y1="693" y2="693"/><ellipse cx="1039" cy="521" fill="#FEFECE" filter="url(#f2w5b4l1ckyej)" rx="5" ry="5" style="stroke: #A80036; stroke-width: 1.5;"/><text fill="#000000" font-family="sans-serif" font-size="12" lengthAdjust="spacingAndGlyphs" textLength="118" x="980" y="537.1387">ViewTypePrototype</text><!--class StartConsoleView--><rect fill="#FEFECE" filter="url(#f2w5b4l1ckyej)" height="48" id="StartConsoleView" style="stroke: #A80036; stroke-width: 1.5;" width="141" x="550.5" y="805"/><ellipse cx="565.5" cy="821" fill="#ADD1B2" rx="11" ry="11" style="stroke: #A80036; stroke-width: 1.0;"/><path d="M568.4688,826.6406 Q567.8906,826.9375 567.25,827.0859 Q566.6094,827.2344 565.9063,827.2344 Q563.4063,827.2344 562.0859,825.5859 Q560.7656,823.9375 560.7656,820.8125 Q560.7656,817.6875 562.0859,816.0313 Q563.4063,814.375 565.9063,814.375 Q566.6094,814.375 567.2578,814.5313 Q567.9063,814.6875 568.4688,814.9844 L568.4688,817.7031 Q567.8438,817.125 567.25,816.8516 Q566.6563,816.5781 566.0313,816.5781 Q564.6875,816.5781 564,817.6484 Q563.3125,818.7188 563.3125,820.8125 Q563.3125,822.9063 564,823.9766 Q564.6875,825.0469 566.0313,825.0469 Q566.6563,825.0469 567.25,824.7734 Q567.8438,824.5 568.4688,823.9219 L568.4688,826.6406 Z "/><text fill="#000000" font-family="sans-serif" font-size="12" lengthAdjust="spacingAndGlyphs" textLength="109" x="579.5" y="825.1543">StartConsoleView</text><line style="stroke: #A80036; stroke-width: 1.5;" x1="551.5" x2="690.5" y1="837" y2="837"/><line style="stroke: #A80036; stroke-width: 1.5;" x1="551.5" x2="690.5" y1="845" y2="845"/><!--class GameConsoleView--><rect fill="#FEFECE" filter="url(#f2w5b4l1ckyej)" height="48" id="GameConsoleView" style="stroke: #A80036; stroke-width: 1.5;" width="146" x="750" y="805"/><ellipse cx="765" cy="821" fill="#ADD1B2" rx="11" ry="11" style="stroke: #A80036; stroke-width: 1.0;"/><path d="M767.9688,826.6406 Q767.3906,826.9375 766.75,827.0859 Q766.1094,827.2344 765.4063,827.2344 Q762.9063,827.2344 761.5859,825.5859 Q760.2656,823.9375 760.2656,820.8125 Q760.2656,817.6875 761.5859,816.0313 Q762.9063,814.375 765.4063,814.375 Q766.1094,814.375 766.7578,814.5313 Q767.4063,814.6875 767.9688,814.9844 L767.9688,817.7031 Q767.3438,817.125 766.75,816.8516 Q766.1563,816.5781 765.5313,816.5781 Q764.1875,816.5781 763.5,817.6484 Q762.8125,818.7188 762.8125,820.8125 Q762.8125,822.9063 763.5,823.9766 Q764.1875,825.0469 765.5313,825.0469 Q766.1563,825.0469 766.75,824.7734 Q767.3438,824.5 767.9688,823.9219 L767.9688,826.6406 Z "/><text fill="#000000" font-family="sans-serif" font-size="12" lengthAdjust="spacingAndGlyphs" textLength="114" x="779" y="825.1543">GameConsoleView</text><line style="stroke: #A80036; stroke-width: 1.5;" x1="751" x2="895" y1="837" y2="837"/><line style="stroke: #A80036; stroke-width: 1.5;" x1="751" x2="895" y1="845" y2="845"/><!--class ResumeConsoleView--><rect fill="#FEFECE" filter="url(#f2w5b4l1ckyej)" height="48" id="ResumeConsoleView" style="stroke: #A80036; stroke-width: 1.5;" width="160" x="931" y="805"/><ellipse cx="946" cy="821" fill="#ADD1B2" rx="11" ry="11" style="stroke: #A80036; stroke-width: 1.0;"/><path d="M948.9688,826.6406 Q948.3906,826.9375 947.75,827.0859 Q947.1094,827.2344 946.4063,827.2344 Q943.9063,827.2344 942.5859,825.5859 Q941.2656,823.9375 941.2656,820.8125 Q941.2656,817.6875 942.5859,816.0313 Q943.9063,814.375 946.4063,814.375 Q947.1094,814.375 947.7578,814.5313 Q948.4063,814.6875 948.9688,814.9844 L948.9688,817.7031 Q948.3438,817.125 947.75,816.8516 Q947.1563,816.5781 946.5313,816.5781 Q945.1875,816.5781 944.5,817.6484 Q943.8125,818.7188 943.8125,820.8125 Q943.8125,822.9063 944.5,823.9766 Q945.1875,825.0469 946.5313,825.0469 Q947.1563,825.0469 947.75,824.7734 Q948.3438,824.5 948.9688,823.9219 L948.9688,826.6406 Z "/><text fill="#000000" font-family="sans-serif" font-size="12" lengthAdjust="spacingAndGlyphs" textLength="128" x="960" y="825.1543">ResumeConsoleView</text><line style="stroke: #A80036; stroke-width: 1.5;" x1="932" x2="1090" y1="837" y2="837"/><line style="stroke: #A80036; stroke-width: 1.5;" x1="932" x2="1090" y1="845" y2="845"/><!--class SecretCombinationConsoleView--><rect fill="#FEFECE" filter="url(#f2w5b4l1ckyej)" height="48" id="SecretCombinationConsoleView" style="stroke: #A80036; stroke-width: 1.5;" width="229" x="484.5" y="913"/><ellipse cx="499.5" cy="929" fill="#ADD1B2" rx="11" ry="11" style="stroke: #A80036; stroke-width: 1.0;"/><path d="M502.4688,934.6406 Q501.8906,934.9375 501.25,935.0859 Q500.6094,935.2344 499.9063,935.2344 Q497.4063,935.2344 496.0859,933.5859 Q494.7656,931.9375 494.7656,928.8125 Q494.7656,925.6875 496.0859,924.0313 Q497.4063,922.375 499.9063,922.375 Q500.6094,922.375 501.2578,922.5313 Q501.9063,922.6875 502.4688,922.9844 L502.4688,925.7031 Q501.8438,925.125 501.25,924.8516 Q500.6563,924.5781 500.0313,924.5781 Q498.6875,924.5781 498,925.6484 Q497.3125,926.7188 497.3125,928.8125 Q497.3125,930.9063 498,931.9766 Q498.6875,933.0469 500.0313,933.0469 Q500.6563,933.0469 501.25,932.7734 Q501.8438,932.5 502.4688,931.9219 L502.4688,934.6406 Z "/><text fill="#000000" font-family="sans-serif" font-size="12" lengthAdjust="spacingAndGlyphs" textLength="197" x="513.5" y="933.1543">SecretCombinationConsoleView</text><line style="stroke: #A80036; stroke-width: 1.5;" x1="485.5" x2="712.5" y1="945" y2="945"/><line style="stroke: #A80036; stroke-width: 1.5;" x1="485.5" x2="712.5" y1="953" y2="953"/><!--class AttemptConsoleView--><rect fill="#FEFECE" filter="url(#f2w5b4l1ckyej)" height="48" id="AttemptConsoleView" style="stroke: #A80036; stroke-width: 1.5;" width="160" x="933" y="913"/><ellipse cx="948" cy="929" fill="#ADD1B2" rx="11" ry="11" style="stroke: #A80036; stroke-width: 1.0;"/><path d="M950.9688,934.6406 Q950.3906,934.9375 949.75,935.0859 Q949.1094,935.2344 948.4063,935.2344 Q945.9063,935.2344 944.5859,933.5859 Q943.2656,931.9375 943.2656,928.8125 Q943.2656,925.6875 944.5859,924.0313 Q945.9063,922.375 948.4063,922.375 Q949.1094,922.375 949.7578,922.5313 Q950.4063,922.6875 950.9688,922.9844 L950.9688,925.7031 Q950.3438,925.125 949.75,924.8516 Q949.1563,924.5781 948.5313,924.5781 Q947.1875,924.5781 946.5,925.6484 Q945.8125,926.7188 945.8125,928.8125 Q945.8125,930.9063 946.5,931.9766 Q947.1875,933.0469 948.5313,933.0469 Q949.1563,933.0469 949.75,932.7734 Q950.3438,932.5 950.9688,931.9219 L950.9688,934.6406 Z "/><text fill="#000000" font-family="sans-serif" font-size="12" lengthAdjust="spacingAndGlyphs" textLength="128" x="962" y="933.1543">AttemptConsoleView</text><line style="stroke: #A80036; stroke-width: 1.5;" x1="934" x2="1092" y1="945" y2="945"/><line style="stroke: #A80036; stroke-width: 1.5;" x1="934" x2="1092" y1="953" y2="953"/><!--class ProposedCombinationConsoleView--><rect fill="#FEFECE" filter="url(#f2w5b4l1ckyej)" height="48" id="ProposedCombinationConsoleView" style="stroke: #A80036; stroke-width: 1.5;" width="248" x="1128" y="913"/><ellipse cx="1143" cy="929" fill="#ADD1B2" rx="11" ry="11" style="stroke: #A80036; stroke-width: 1.0;"/><path d="M1145.9688,934.6406 Q1145.3906,934.9375 1144.75,935.0859 Q1144.1094,935.2344 1143.4063,935.2344 Q1140.9063,935.2344 1139.5859,933.5859 Q1138.2656,931.9375 1138.2656,928.8125 Q1138.2656,925.6875 1139.5859,924.0313 Q1140.9063,922.375 1143.4063,922.375 Q1144.1094,922.375 1144.7578,922.5313 Q1145.4063,922.6875 1145.9688,922.9844 L1145.9688,925.7031 Q1145.3438,925.125 1144.75,924.8516 Q1144.1563,924.5781 1143.5313,924.5781 Q1142.1875,924.5781 1141.5,925.6484 Q1140.8125,926.7188 1140.8125,928.8125 Q1140.8125,930.9063 1141.5,931.9766 Q1142.1875,933.0469 1143.5313,933.0469 Q1144.1563,933.0469 1144.75,932.7734 Q1145.3438,932.5 1145.9688,931.9219 L1145.9688,934.6406 Z "/><text fill="#000000" font-family="sans-serif" font-size="12" lengthAdjust="spacingAndGlyphs" textLength="216" x="1157" y="933.1543">ProposedCombinationConsoleView</text><line style="stroke: #A80036; stroke-width: 1.5;" x1="1129" x2="1375" y1="945" y2="945"/><line style="stroke: #A80036; stroke-width: 1.5;" x1="1129" x2="1375" y1="953" y2="953"/><!--class ResultConsoleView--><rect fill="#FEFECE" filter="url(#f2w5b4l1ckyej)" height="48" id="ResultConsoleView" style="stroke: #A80036; stroke-width: 1.5;" width="149" x="748.5" y="913"/><ellipse cx="763.5" cy="929" fill="#ADD1B2" rx="11" ry="11" style="stroke: #A80036; stroke-width: 1.0;"/><path d="M766.4688,934.6406 Q765.8906,934.9375 765.25,935.0859 Q764.6094,935.2344 763.9063,935.2344 Q761.4063,935.2344 760.0859,933.5859 Q758.7656,931.9375 758.7656,928.8125 Q758.7656,925.6875 760.0859,924.0313 Q761.4063,922.375 763.9063,922.375 Q764.6094,922.375 765.2578,922.5313 Q765.9063,922.6875 766.4688,922.9844 L766.4688,925.7031 Q765.8438,925.125 765.25,924.8516 Q764.6563,924.5781 764.0313,924.5781 Q762.6875,924.5781 762,925.6484 Q761.3125,926.7188 761.3125,928.8125 Q761.3125,930.9063 762,931.9766 Q762.6875,933.0469 764.0313,933.0469 Q764.6563,933.0469 765.25,932.7734 Q765.8438,932.5 766.4688,931.9219 L766.4688,934.6406 Z "/><text fill="#000000" font-family="sans-serif" font-size="12" lengthAdjust="spacingAndGlyphs" textLength="117" x="777.5" y="933.1543">ResultConsoleView</text><line style="stroke: #A80036; stroke-width: 1.5;" x1="749.5" x2="896.5" y1="945" y2="945"/><line style="stroke: #A80036; stroke-width: 1.5;" x1="749.5" x2="896.5" y1="953" y2="953"/><ellipse cx="689" cy="677" fill="#FEFECE" filter="url(#f2w5b4l1ckyej)" rx="5" ry="5" style="stroke: #A80036; stroke-width: 1.5;"/><text fill="#000000" font-family="sans-serif" font-size="12" lengthAdjust="spacingAndGlyphs" textLength="59" x="659.5" y="693.1387">StartView</text><ellipse cx="823" cy="677" fill="#FEFECE" filter="url(#f2w5b4l1ckyej)" rx="5" ry="5" style="stroke: #A80036; stroke-width: 1.5;"/><text fill="#000000" font-family="sans-serif" font-size="12" lengthAdjust="spacingAndGlyphs" textLength="64" x="791" y="693.1387">GameView</text><ellipse cx="997" cy="677" fill="#FEFECE" filter="url(#f2w5b4l1ckyej)" rx="5" ry="5" style="stroke: #A80036; stroke-width: 1.5;"/><text fill="#000000" font-family="sans-serif" font-size="12" lengthAdjust="spacingAndGlyphs" textLength="78" x="958" y="693.1387">ResumeView</text><!--link Session to StateValue--><path d="M1018.45,116.868 C1014.2,121.387 1009.95,126.015 1006,130.5 C998.73,138.758 991.249,147.656 984.031,156.476 " fill="none" id="Session-StateValue" style="stroke: #A80036; stroke-width: 1.0;"/><polygon fill="#A80036" points="975.705,166.751,984.4789,162.2768,978.8529,162.8663,978.2634,157.2402,975.705,166.751" style="stroke: #A80036; stroke-width: 1.0;"/><line style="stroke: #A80036; stroke-width: 1.0;" x1="978.8529" x2="983.889" y1="162.8663" y2="156.6505"/><polygon fill="#A80036" points="1027.67,107.249,1020.6309,108.8146,1019.3687,115.9143,1026.4078,114.3488,1027.67,107.249" style="stroke: #A80036; stroke-width: 1.0;"/><!--link Session to Game--><path d="M1052.93,120.232 C1053.9,138.506 1055.08,160.619 1056.05,178.939 " fill="none" id="Session-Game" style="stroke: #A80036; stroke-width: 1.0;"/><polygon fill="#A80036" points="1056.75,192.083,1060.2658,182.8831,1056.4841,187.0901,1052.2771,183.3084,1056.75,192.083" style="stroke: #A80036; stroke-width: 1.0;"/><line style="stroke: #A80036; stroke-width: 1.0;" x1="1056.4841" x2="1056.065" y1="187.0901" y2="179.101"/><polygon fill="#A80036" points="1052.24,107.207,1048.564,113.4108,1052.8767,119.1901,1056.5527,112.9863,1052.24,107.207" style="stroke: #A80036; stroke-width: 1.0;"/><!--link Controller to StartController--><path d="M1332.9,264.417 C1345.45,284.791 1359.77,308.036 1370.8,325.944 " fill="none" id="Controller-StartController" style="stroke: #A80036; stroke-width: 1.0;"/><polygon fill="none" points="1326.76,267.805,1322.23,247.104,1338.68,260.462,1326.76,267.805" style="stroke: #A80036; stroke-width: 1.0;"/><!--link Controller to ProposalController--><path d="M1371.93,254.118 C1413.5,276.528 1466,304.83 1504.96,325.833 " fill="none" id="Controller-ProposalController" style="stroke: #A80036; stroke-width: 1.0;"/><polygon fill="none" points="1368.56,260.252,1354.27,244.6,1375.2,247.928,1368.56,260.252" style="stroke: #A80036; stroke-width: 1.0;"/><!--link Controller to ResumeController--><path d="M1275.44,264.417 C1263.04,284.791 1248.89,308.036 1237.99,325.944 " fill="none" id="Controller-ResumeController" style="stroke: #A80036; stroke-width: 1.0;"/><polygon fill="none" points="1269.6,260.549,1285.98,247.104,1281.56,267.828,1269.6,260.549" style="stroke: #A80036; stroke-width: 1.0;"/><!--link Mastermind to StartController--><path d="M1699.94,266.155 C1683.95,275.116 1666.79,283.637 1650,290 C1572.89,319.215 1547.33,303.504 1468,326 C1466.63,326.389 1465.24,326.792 1463.85,327.206 " fill="none" id="Mastermind-StartController" style="stroke: #A80036; stroke-width: 1.0;"/><polygon fill="#A80036" points="1451.22,331.203,1461.0068,332.3069,1455.9879,329.6972,1458.5976,324.6783,1451.22,331.203" style="stroke: #A80036; stroke-width: 1.0;"/><line style="stroke: #A80036; stroke-width: 1.0;" x1="1455.9879" x2="1463.61" y1="329.6972" y2="327.282"/><polygon fill="#A80036" points="1711.36,259.576,1704.1639,259.1106,1700.9667,265.5742,1708.1627,266.0395,1711.36,259.576" style="stroke: #A80036; stroke-width: 1.0;"/><!--link Mastermind to ProposalController--><path d="M1697.53,266.81 C1670.98,283.934 1641.69,302.824 1616.98,318.754 " fill="none" id="Mastermind-ProposalController" style="stroke: #A80036; stroke-width: 1.0;"/><polygon fill="#A80036" points="1605.98,325.848,1615.7117,324.3332,1610.1824,323.1387,1611.3769,317.6094,1605.98,325.848" style="stroke: #A80036; stroke-width: 1.0;"/><line style="stroke: #A80036; stroke-width: 1.0;" x1="1610.1824" x2="1616.905" y1="323.1387" y2="318.8025"/><polygon fill="#A80036" points="1708.63,259.654,1701.4198,259.5428,1698.5439,266.1556,1705.7542,266.2668,1708.63,259.654" style="stroke: #A80036; stroke-width: 1.0;"/><!--link Mastermind to ResumeController--><path d="M1702.45,266.173 C1685.85,275.494 1667.81,284.155 1650,290 C1505.2,337.524 1457.97,293.84 1309,326 C1307.39,326.348 1305.77,326.714 1304.13,327.097 " fill="none" id="Mastermind-ResumeController" style="stroke: #A80036; stroke-width: 1.0;"/><polygon fill="#A80036" points="1291.52,330.326,1301.2314,331.9655,1296.3634,329.0843,1299.2446,324.2162,1291.52,330.326" style="stroke: #A80036; stroke-width: 1.0;"/><line style="stroke: #A80036; stroke-width: 1.0;" x1="1296.3634" x2="1304.12" y1="329.0843" y2="327.1015"/><polygon fill="#A80036" points="1713.69,259.641,1706.4927,259.1953,1703.313,265.6675,1710.5104,266.1132,1713.69,259.641" style="stroke: #A80036; stroke-width: 1.0;"/><!--link View to StartView--><path d="M348.397,545.007 C299.334,568.394 221.512,605.932 155,640 C149.359,642.89 143.477,645.961 137.644,649.045 " fill="none" id="View-StartView" style="stroke: #A80036; stroke-width: 1.0;"/><polygon fill="none" points="345.56,538.605,366.628,536.337,351.572,551.248,345.56,538.605" style="stroke: #A80036; stroke-width: 1.0;"/><!--link View to GameView--><path d="M364.907,560.612 C344.704,584.918 318.802,616.082 299.01,639.895 " fill="none" id="View-GameView" style="stroke: #A80036; stroke-width: 1.0;"/><polygon fill="none" points="359.67,555.962,377.837,545.055,370.436,564.911,359.67,555.962" style="stroke: #A80036; stroke-width: 1.0;"/><!--link View to ResumeView--><path d="M429.093,560.612 C449.296,584.918 475.198,616.082 494.99,639.895 " fill="none" id="View-ResumeView" style="stroke: #A80036; stroke-width: 1.0;"/><polygon fill="none" points="423.564,564.911,416.163,545.055,434.33,555.962,423.564,564.911" style="stroke: #A80036; stroke-width: 1.0;"/><!--link ViewPrototype to ViewType--><path d="M1521.22,591.104 C1529.7,603.778 1538.36,616.739 1546.29,628.596 " fill="none" id="ViewPrototype-ViewType" style="stroke: #A80036; stroke-width: 1.0;"/><polygon fill="#A80036" points="1553.64,639.58,1551.965,629.8746,1550.8618,635.4229,1545.3136,634.3197,1553.64,639.58" style="stroke: #A80036; stroke-width: 1.0;"/><line style="stroke: #A80036; stroke-width: 1.0;" x1="1550.8618" x2="1546.415" y1="635.4229" y2="628.7745"/><polygon fill="#A80036" points="1513.94,580.221,1513.9525,587.4321,1520.6137,590.194,1520.6012,582.9829,1513.94,580.221" style="stroke: #A80036; stroke-width: 1.0;"/><!--link ViewConsolePrototypelol8319338 to ViewConsolePrototype--><path d="M1084.35,526.021 C1085.48,536.461 1089.95,564.685 1106,580 C1121.78,595.058 1235.99,629.68 1317.31,652.962 " fill="none" id="ViewConsolePrototypelol8319338-ViewConsolePrototype" style="stroke: #A80036; stroke-width: 1.0;"/><!--link ViewGraphicPrototypelol8319342 to ViewGraphicPrototype--><path d="M1039.98,526.194 C1042.42,536.115 1049.43,561.576 1061,580 C1078.46,607.813 1104.81,634.508 1124.67,652.656 " fill="none" id="ViewGraphicPrototypelol8319342-ViewGraphicPrototype" style="stroke: #A80036; stroke-width: 1.0;"/><!--link ViewPrototype to ViewConsolePrototype--><path d="M1440.81,592.204 C1432.6,609.053 1424.18,626.34 1417.14,640.804 " fill="none" id="ViewPrototype-ViewConsolePrototype" style="stroke: #A80036; stroke-width: 1.0;"/><polygon fill="#A80036" points="1411.35,652.705,1418.887,646.3651,1413.5393,648.2098,1411.6947,642.8622,1411.35,652.705" style="stroke: #A80036; stroke-width: 1.0;"/><line style="stroke: #A80036; stroke-width: 1.0;" x1="1413.5393" x2="1417.04" y1="648.2098" y2="641.017"/><polygon fill="#A80036" points="1446.65,580.221,1440.4263,583.8631,1441.3945,591.0089,1447.6182,587.3668,1446.65,580.221" style="stroke: #A80036; stroke-width: 1.0;"/><!--link ViewPrototype to ViewGraphicPrototype--><path d="M1341.43,585.683 C1296.61,607.052 1248.83,629.832 1212.47,647.168 " fill="none" id="ViewPrototype-ViewGraphicPrototype" style="stroke: #A80036; stroke-width: 1.0;"/><polygon fill="#A80036" points="1200.6,652.829,1210.4455,652.5724,1205.1146,650.68,1207.0071,645.3491,1200.6,652.829" style="stroke: #A80036; stroke-width: 1.0;"/><line style="stroke: #A80036; stroke-width: 1.0;" x1="1205.1146" x2="1212.335" y1="650.68" y2="647.234"/><polygon fill="#A80036" points="1353.35,580.001,1346.2132,578.9681,1342.5149,585.1587,1349.6517,586.1915,1353.35,580.001" style="stroke: #A80036; stroke-width: 1.0;"/><!--link StartConsoleView to SecretCombinationConsoleView--><path d="M616.226,853 C612.905,869.003 608.455,890.446 604.909,907.528 " fill="none" id="StartConsoleView-SecretCombinationConsoleView" style="stroke: #A80036; stroke-width: 1.0;"/><polygon fill="#A80036" points="603.84,912.6784,609.5849,904.6786,604.8557,907.7827,601.7517,903.0535,603.84,912.6784" style="stroke: #A80036; stroke-width: 1.0;"/><!--link GameConsoleView to SecretCombinationConsoleView--><path d="M774.395,853 C738.561,869.958 689.816,893.025 652.808,910.5375 " fill="none" id="GameConsoleView-SecretCombinationConsoleView" style="stroke: #A80036; stroke-width: 1.0;"/><polygon fill="#A80036" points="647.896,912.8617,657.7421,912.6279,652.4156,910.7231,654.3204,905.3966,647.896,912.8617" style="stroke: #A80036; stroke-width: 1.0;"/><!--link GameConsoleView to AttemptConsoleView--><path d="M864.227,853 C894.499,869.889 935.631,892.837 966.975,910.3227 " fill="none" id="GameConsoleView-AttemptConsoleView" style="stroke: #A80036; stroke-width: 1.0;"/><polygon fill="#A80036" points="971.526,912.8617,965.6144,904.9843,967.1593,910.4262,961.7175,911.9711,971.526,912.8617" style="stroke: #A80036; stroke-width: 1.0;"/><!--link GameConsoleView to ProposedCombinationConsoleView--><path d="M896.171,848.765 C901.864,850.205 907.524,851.63 913,853 C993.06,873.03 1083.89,895.241 1151.37,911.6425 " fill="none" id="GameConsoleView-ProposedCombinationConsoleView" style="stroke: #A80036; stroke-width: 1.0;"/><polygon fill="#A80036" points="1156.59,912.9124,1148.795,906.8927,1151.7326,911.727,1146.8983,914.6646,1156.59,912.9124" style="stroke: #A80036; stroke-width: 1.0;"/><!--link GameConsoleView to ResultConsoleView--><path d="M823,853 C823,869.003 823,890.446 823,907.528 " fill="none" id="GameConsoleView-ResultConsoleView" style="stroke: #A80036; stroke-width: 1.0;"/><polygon fill="#A80036" points="823,912.6784,827,903.6784,823,907.6784,819,903.6784,823,912.6784" style="stroke: #A80036; stroke-width: 1.0;"/><!--link StartConsoleViewlol8319366 to StartConsoleView--><path d="M687.581,681.832 C684.011,691.401 674.282,717.08 665,738 C654.772,761.052 642.014,786.863 632.874,804.913 " fill="none" id="StartConsoleViewlol8319366-StartConsoleView" style="stroke: #A80036; stroke-width: 1.0;"/><!--link GameConsoleViewlol8319369 to GameConsoleView--><path d="M823,682.012 C823,699.297 823,768.185 823,804.816 " fill="none" id="GameConsoleViewlol8319369-GameConsoleView" style="stroke: #A80036; stroke-width: 1.0;"/><!--link ResumeConsoleViewlol8319372 to ResumeConsoleView--><path d="M997.374,682.012 C998.988,699.297 1005.417,768.185 1008.84,804.816 " fill="none" id="ResumeConsoleViewlol8319372-ResumeConsoleView" style="stroke: #A80036; stroke-width: 1.0;"/><!--link ViewConsolePrototype to mastermind.views.console--><path d="M1400,714.315 C1400,725.2213 1400,737.6304 1400,750.1458 C1400,753.2746 1400,756.4101 1400,759.5304 C1400,760.3105 1400,761.0896 1400,761.8674 " fill="none" id="ViewConsolePrototype-mastermind.views.console" style="stroke: #A80036; stroke-width: 1.0;"/><polygon fill="#A80036" points="1400,761.8674,1404,752.8674,1400,756.8674,1396,752.8674,1400,761.8674" style="stroke: #A80036; stroke-width: 1.0;"/><polygon fill="#A80036" points="1400,701.109,1396,707.109,1400,713.109,1404,707.109,1400,701.109" style="stroke: #A80036; stroke-width: 1.0;"/><!--link StartController to ViewPrototype--><path d="M1410.92,398.923 C1419.17,414.5 1428.78,432.672 1438.02,450.129 " fill="none" id="StartController-ViewPrototype" style="stroke: #A80036; stroke-width: 1.0;"/><polygon fill="#A80036" points="1444.18,461.761,1443.5037,451.9354,1441.8403,457.3422,1436.4335,455.6789,1444.18,461.761" style="stroke: #A80036; stroke-width: 1.0;"/><line style="stroke: #A80036; stroke-width: 1.0;" x1="1441.8403" x2="1438.1" y1="457.3422" y2="450.2705"/><polygon fill="#A80036" points="1404.77,387.305,1404.0382,394.4789,1410.3787,397.9136,1411.1106,390.7397,1404.77,387.305" style="stroke: #A80036; stroke-width: 1.0;"/><!--link ProposalController to ViewPrototype--><path d="M1538.33,398.923 C1530.18,414.5 1520.68,432.672 1511.55,450.129 " fill="none" id="ProposalController-ViewPrototype" style="stroke: #A80036; stroke-width: 1.0;"/><polygon fill="#A80036" points="1505.46,461.761,1513.1771,455.6416,1507.7784,457.331,1506.089,451.9322,1505.46,461.761" style="stroke: #A80036; stroke-width: 1.0;"/><line style="stroke: #A80036; stroke-width: 1.0;" x1="1507.7784" x2="1511.49" y1="457.331" y2="450.241"/><polygon fill="#A80036" points="1544.41,387.305,1538.0857,390.7696,1538.8514,397.9399,1545.1757,394.4753,1544.41,387.305" style="stroke: #A80036; stroke-width: 1.0;"/><!--link ResumeController to ViewPrototype--><path d="M1277.64,394.229 C1305.69,412.105 1340.27,434.14 1372.6,454.747 " fill="none" id="ResumeController-ViewPrototype" style="stroke: #A80036; stroke-width: 1.0;"/><polygon fill="#A80036" points="1383.93,461.966,1378.4895,453.7562,1379.7133,459.2791,1374.1904,460.5029,1383.93,461.966" style="stroke: #A80036; stroke-width: 1.0;"/><line style="stroke: #A80036; stroke-width: 1.0;" x1="1379.7133" x2="1372.965" y1="459.2791" y2="454.98"/><polygon fill="#A80036" points="1266.47,387.116,1269.3809,393.7135,1276.5904,393.5641,1273.6796,386.9666,1266.47,387.116" style="stroke: #A80036; stroke-width: 1.0;"/><!--link ViewTypePrototype to StateValue--><path d="M1181.51,490.317 C1135.82,439.129 1041.65,333.624 984.736,269.862 " fill="none" id="ViewTypePrototype-StateValue" style="stroke: #A80036; stroke-width: 1.0;"/><polygon fill="#A80036" points="981.38,266.102,984.3879,275.4803,984.7091,269.8326,990.3568,270.1538,981.38,266.102" style="stroke: #A80036; stroke-width: 1.0;"/><!--link View to ViewTypePrototype--><path d="M431.996,513.102 C527.869,491.92 803.084,434.161 1035.5,415 C1051.14,413.711 1092.27,411.407 1106,419 C1138,436.691 1166.67,467.38 1185.41,490.486 " fill="none" id="View-ViewTypePrototype" style="stroke: #A80036; stroke-width: 1.0;"/><polygon fill="#A80036" points="427.023,514.203,436.675,516.1623,431.9047,513.1218,434.9451,508.3515,427.023,514.203" style="stroke: #A80036; stroke-width: 1.0;"/><!--link Session to ViewType--><path d="M1104.87,85.031 C1283.65,88.714 1847.55,102.513 1874,130.5 C2008.81,273.145 1717.38,560.276 1700,580 C1680.63,601.984 1655.71,622.608 1633.45,639.064 " fill="none" id="Session-ViewType" style="stroke: #A80036; stroke-width: 1.0;"/><polygon fill="#A80036" points="1622.77,646.794,1632.4051,644.7531,1626.8191,643.8606,1627.7116,638.2746,1622.77,646.794" style="stroke: #A80036; stroke-width: 1.0;"/><line style="stroke: #A80036; stroke-width: 1.0;" x1="1626.8191" x2="1633.3" y1="643.8606" y2="639.1715"/><polygon fill="#A80036" points="1091.7,84.764,1097.6152,88.8884,1103.6974,85.0145,1097.7822,80.8901,1091.7,84.764" style="stroke: #A80036; stroke-width: 1.0;"/><!--link Session to Controller--><path d="M1096.13,107.457 C1140.45,130.492 1207.91,165.556 1253.87,189.446 " fill="none" id="Session-Controller" style="stroke: #A80036; stroke-width: 1.0;"/><polygon fill="#A80036" points="1091.65,105.128,1097.7995,112.8211,1096.0891,107.429,1101.4811,105.7185,1091.65,105.128" style="stroke: #A80036; stroke-width: 1.0;"/><!--link Session to Mastermind--><path d="M1104.82,84.629 C1232.45,86.687 1550.23,95.298 1650,130.5 C1672.84,138.56 1695.42,151.948 1714.93,165.742 " fill="none" id="Session-Mastermind" style="stroke: #A80036; stroke-width: 1.0;"/><polygon fill="#A80036" points="1725.43,173.415,1722.9403,166.6473,1715.7357,166.3425,1718.2253,173.1102,1725.43,173.415" style="stroke: #A80036; stroke-width: 1.0;"/><polygon fill="#A80036" points="1091.65,84.429,1100.5919,88.5572,1096.6495,84.5004,1100.7062,80.558,1091.65,84.429" style="stroke: #A80036; stroke-width: 1.0;"/><line style="stroke: #A80036; stroke-width: 1.0;" x1="1096.6495" x2="1104.645" y1="84.5004" y2="84.6265"/><!--link ViewType to Mastermind--><path d="M1606.4,635.493 C1617.41,618.773 1629.6,598.91 1639,580 C1694.37,468.595 1740.3,328.601 1761.45,259.731 " fill="none" id="ViewType-Mastermind" style="stroke: #A80036; stroke-width: 1.0;"/><polygon fill="#A80036" points="1603.63,639.674,1611.9346,634.3793,1606.391,635.5054,1605.2649,629.9618,1603.63,639.674" style="stroke: #A80036; stroke-width: 1.0;"/><!--
@startuml
package mastermind {
class Mastermind {
   ~Mastermind(ViewType)
   ~Controller getController()
   ~void play()
}
}

package mastermind.models {
class Session
enum StateValue {
 INITIAL 
 IN_GAME
 FINAL
 EXIT
}
class Game

Session *-down-> StateValue 
Session *-down-> Game 
}

package mastermind.controllers {
abstract class Controller{ 
   +{abstract} void control()
} 

StartController -up-|> Controller 
ProposalController -up-|> Controller 
ResumeController -up-|> Controller

class StartController { 
   +void control() 
}

class ProposalController { 
   +void control() 
} 

class ResumeController { 
   +void control() 
}
}

Mastermind *-down-> StartController 
Mastermind *-down-> ProposalController 
Mastermind *-down-> ResumeController 

package mastermind.views {

interface View
interface StartView {
   + void writeln()
}
interface GameView {
   + void writeGame(Game game)
   + ProposedCombination read()
}
interface ResumeView {
   + boolean readNewGame()
   + void writeFinalResult(Boolean isWinner)
}

View <|-down- StartView
View <|-down- GameView
View <|-down- ResumeView

}

package mastermind.views.prototype {
class ViewPrototype << (S,#FF7700) Singleton >> {
- Map<ViewType, ViewTypePrototype> viewsMap
- {static} ViewPrototype viewPrototype
+ ViewPrototype getInstance()
- ViewPrototype()
+ View getView(Session)
}

ViewPrototype *-down-> ViewType

interface ViewTypePrototype {
   + View getView(StateValue)
}

ViewTypePrototype ()- - ViewConsolePrototype
ViewTypePrototype ()- - ViewGraphicPrototype

ViewPrototype *- -> ViewConsolePrototype
ViewPrototype *- -> ViewGraphicPrototype

enum ViewType {
 CONSOLE
 GRAPHIC
}

}

package mastermind.views.console {
class StartConsoleView
class GameConsoleView
class ResumeConsoleView

SecretCombinationConsoleView <-down- StartConsoleView
SecretCombinationConsoleView <-down- GameConsoleView
AttemptConsoleView <-down- GameConsoleView
ProposedCombinationConsoleView <-down- GameConsoleView
ResultConsoleView <-down- GameConsoleView
}


StartView ()- - StartConsoleView
GameView ()- - GameConsoleView
ResumeView ()- - ResumeConsoleView

mastermind.views.console <-down-* ViewConsolePrototype

StartController *-down-> ViewPrototype
ProposalController *-down-> ViewPrototype
ResumeController *-down-> ViewPrototype


ViewTypePrototype - -> StateValue
ViewTypePrototype -left-> View

Session *-down-> ViewType

Controller -up-> Session 
Mastermind *-up-> Session
Mastermind -up-> ViewType
@enduml

PlantUML version 1.2019.05(Sat Apr 20 18:45:36 CEST 2019)
(GPL source distribution)
Java Runtime: OpenJDK Runtime Environment
JVM: OpenJDK 64-Bit Server VM
Java Version: 1.8.0_191-8u191-b12-2ubuntu0.16.04.1-b12
Operating System: Linux
OS Version: 4.4.0-137-generic
Default Encoding: UTF-8
Language: en
Country: US
--></g></svg>